<svg xmlns="http://www.w3.org/2000/svg" viewBox="0 0 280 240" width="280" height="240">
  <defs>
    <linearGradient id="sky" x1="0" y1="0" x2="0" y2="1">
      <stop offset="0" stop-color="#0a1b36"/>
      <stop offset="1" stop-color="#1b3c6b"/>
    </linearGradient>
    <radialGradient id="moon" cx="50%" cy="50%" r="50%">
      <stop offset="0" stop-color="#e8f2ff"/>
      <stop offset="0.6" stop-color="#b9d4ff"/>
      <stop offset="1" stop-color="#b9d4ff" stop-opacity="0"/>
    </radialGradient>
    <linearGradient id="mist" x1="0" y1="0" x2="0" y2="1">
      <stop offset="0" stop-color="#8fb4e8" stop-opacity="0"/>
      <stop offset="1" stop-color="#8fb4e8" stop-opacity="0.35"/>
    </linearGradient>
    <linearGradient id="fade" x1="0" y1="0" x2="1" y2="0">
      <stop offset="0" stop-color="#0B1220" stop-opacity="1"/>
      <stop offset="0.3" stop-color="#0B1220" stop-opacity="0"/>
    </linearGradient>
  </defs>
  <rect width="280" height="240" fill="url(#sky)"/>
  <circle cx="200" cy="64" r="44" fill="url(#moon)" opacity="0.5"/>
  <circle cx="200" cy="64" r="20" fill="#eaf3ff"/>
  <g fill="#cfe2ff"><circle cx="60" cy="30" r="1.2"/><circle cx="120" cy="20" r="1"/><circle cx="250" cy="130" r="1"/><circle cx="90" cy="70" r="1"/></g>
  <path fill="#1d3a63" d="M0,170 L60,110 L100,140 L160,80 L220,140 L280,110 L280,240 L0,240 Z"/>
  <path fill="#152c4d" d="M0,200 L50,160 L110,190 L170,140 L240,190 L280,170 L280,240 L0,240 Z"/>
  <rect y="150" width="280" height="90" fill="url(#mist)"/>
  <!-- torii -->
  <g fill="#0b1426">
    <path d="M118,150 Q170,140 222,150 L222,158 Q170,149 118,158 Z"/>
    <rect x="126" y="166" width="88" height="6"/>
    <rect x="138" y="156" width="8" height="74"/>
    <rect x="194" y="156" width="8" height="74"/>
    <rect x="166" y="158" width="6" height="14"/>
  </g>
  <path fill="#060d1a" d="M0,222 Q140,210 280,224 L280,240 L0,240 Z"/>
  <rect width="280" height="240" fill="url(#fade)"/>
</svg>
